<svg width="85" height="18" viewBox="0 0 85 18" fill="none" xmlns="http://www.w3.org/2000/svg">
<path d="M8.81704 16.3576C9.4489 16.3576 10.033 16.2222 10.5694 15.9515C11.1057 15.6732 11.5356 15.2746 11.8589 14.7557C12.1822 14.2368 12.3439 13.605 12.3439 12.8605C12.3439 12.1159 12.1822 11.4954 11.8589 10.9991C11.5356 10.4952 11.1057 10.1154 10.5694 9.85969C10.033 9.60396 9.4489 9.47613 8.81704 9.47613H5.05878C4.8236 9.47613 4.67303 9.51371 4.6069 9.58894C4.54807 9.66418 4.51873 9.82958 4.51873 10.0853V15.9289C4.51873 16.117 4.55544 16.2372 4.62895 16.2899C4.70237 16.335 4.83462 16.3576 5.02571 16.3576H8.81704ZM5.05878 8.23521H8.59661C9.15497 8.23521 9.68399 8.12613 10.1837 7.90806C10.6907 7.68998 11.1021 7.35155 11.4181 6.89276C11.7413 6.4265 11.903 5.82105 11.903 5.0765C11.903 4.33194 11.7413 3.7265 11.4181 3.26024C11.1021 2.79398 10.6907 2.45555 10.1837 2.24494C9.68399 2.02687 9.15497 1.91779 8.59661 1.91779H4.90448C4.72814 1.91779 4.61792 1.95537 4.57384 2.0306C4.53705 2.10584 4.51873 2.23739 4.51873 2.42544V7.78396C4.51873 8.00204 4.5518 8.13368 4.61793 8.1788C4.69135 8.21638 4.83835 8.23521 5.05878 8.23521ZM9.03747 17.5985H0.451874C0.282826 17.5985 0.165319 17.5835 0.0991916 17.5534C0.0330638 17.5158 0 17.4105 0 17.2375V16.7412C0 16.5682 0.0293359 16.4629 0.0881702 16.4253C0.146923 16.3802 0.25349 16.3576 0.407788 16.3576H1.98383C2.13813 16.3576 2.24834 16.3388 2.31447 16.3012C2.38789 16.2636 2.42468 16.1696 2.42468 16.0192V2.34647C2.42468 2.14341 2.39162 2.02305 2.32549 1.98548C2.26666 1.94035 2.1344 1.91779 1.92873 1.91779H0.451874C0.268158 1.91779 0.146923 1.89896 0.0881702 1.86138C0.0293359 1.81626 0 1.69971 0 1.51167V1.03786C0 0.887475 0.025689 0.789677 0.0771488 0.744553C0.128527 0.699428 0.224072 0.676867 0.363702 0.676867H8.59661C9.70604 0.676867 10.6723 0.84235 11.4952 1.17323C12.3255 1.49665 12.9683 1.98548 13.4239 2.63978C13.8795 3.28654 14.1073 4.09877 14.1073 5.0765C14.1073 6.05422 13.8941 6.83635 13.468 7.42297C13.0492 8.00204 12.4283 8.41197 11.6054 8.65261C11.4438 8.69773 11.3666 8.75041 11.374 8.81054C11.3813 8.87068 11.4511 8.91962 11.5834 8.9572C12.59 9.22795 13.3725 9.67919 13.9309 10.3109C14.4893 10.9351 14.7685 11.785 14.7685 12.8605C14.7685 13.9886 14.5371 14.9023 14.0742 15.6018C13.6113 16.2937 12.95 16.8013 12.0904 17.1247C11.238 17.4406 10.2204 17.5985 9.03747 17.5985ZM16.798 1.80498C16.798 1.42897 16.9266 1.10928 17.1837 0.846083C17.4483 0.582885 17.7605 0.451245 18.1206 0.451245C18.4879 0.451245 18.8002 0.582885 19.0574 0.846083C19.3145 1.10928 19.4431 1.42897 19.4431 1.80498C19.4431 2.17352 19.3145 2.49313 19.0574 2.76387C18.8002 3.02707 18.4879 3.15871 18.1206 3.15871C17.7605 3.15871 17.4483 3.02707 17.1837 2.76387C16.9266 2.49313 16.798 2.17352 16.798 1.80498ZM16.9743 7.1071H15.4865C15.3763 7.1071 15.3101 7.09208 15.2881 7.06197C15.266 7.0244 15.255 6.94916 15.255 6.83635V6.15948C15.255 5.96397 15.3432 5.86618 15.5195 5.86618H19.0133C19.1014 5.86618 19.1566 5.88119 19.1786 5.9113C19.208 5.94141 19.2227 6.00528 19.2227 6.10308V16.0869C19.2227 16.1847 19.2374 16.2561 19.2668 16.3012C19.3035 16.3388 19.366 16.3576 19.4541 16.3576H20.942C21.0448 16.3576 21.1147 16.3689 21.1514 16.3914C21.1881 16.414 21.2065 16.478 21.2065 16.5832V17.3278C21.2065 17.433 21.1955 17.5045 21.1735 17.5421C21.1588 17.5797 21.1 17.5985 20.9971 17.5985H15.5967C15.4718 17.5985 15.3836 17.5835 15.3322 17.5534C15.2807 17.5233 15.255 17.4481 15.255 17.3278V16.696C15.255 16.5457 15.2807 16.4516 15.3322 16.414C15.3909 16.3764 15.4865 16.3576 15.6187 16.3576H16.9854C17.1102 16.3576 17.1837 16.335 17.2058 16.2899C17.2278 16.2448 17.2389 16.1621 17.2389 16.0417V7.37784C17.2389 7.19735 17.1507 7.1071 16.9743 7.1071ZM27.6929 15.3987C27.546 15.85 27.3329 16.2636 27.0536 16.6396C26.7818 17.0156 26.4365 17.3165 26.0176 17.5421C25.6062 17.7602 25.1139 17.8693 24.5408 17.8693C23.7473 17.8693 23.1779 17.6549 22.8325 17.2262C22.4872 16.7976 22.3145 16.2749 22.3145 15.6582V7.49066C22.3145 7.35528 22.2888 7.25748 22.2373 7.19735C22.186 7.13721 22.0941 7.1071 21.9618 7.1071H20.6503C20.496 7.1071 20.3931 7.08827 20.3417 7.05069C20.2903 7.01312 20.2645 6.91905 20.2645 6.76866V6.15948C20.2645 6.01656 20.2829 5.93386 20.3196 5.9113C20.3637 5.88119 20.4556 5.86618 20.5952 5.86618C20.9919 5.86618 21.3153 5.83988 21.565 5.78721C21.8149 5.73454 22.0206 5.61799 22.1822 5.43749C22.3439 5.257 22.4872 4.97497 22.6121 4.59141C22.737 4.20785 22.8729 3.68892 23.0198 3.03462C23.0493 2.90679 23.0823 2.82028 23.119 2.77515C23.1558 2.73003 23.255 2.70747 23.4166 2.70747H24.0118C24.2029 2.70747 24.2983 2.81654 24.2983 3.03462V5.51646C24.2983 5.6744 24.3351 5.77219 24.4085 5.80977C24.482 5.84735 24.5886 5.86618 24.7281 5.86618H28.4715C28.6185 5.86618 28.714 5.88874 28.7581 5.93386C28.8095 5.97899 28.8352 6.08052 28.8352 6.23845V6.82507C28.8352 6.96044 28.8059 7.04314 28.747 7.07325C28.6957 7.09582 28.6038 7.1071 28.4715 7.1071H24.7502C24.5959 7.1071 24.482 7.12593 24.4085 7.1635C24.3351 7.20108 24.2983 7.30642 24.2983 7.47937V15.1844C24.2983 15.6356 24.3865 15.9628 24.5628 16.1658C24.7392 16.3689 24.9743 16.4704 25.2682 16.4704C25.5842 16.4704 25.8671 16.3576 26.1168 16.132C26.3741 15.8988 26.5981 15.5679 26.7891 15.1392C26.8406 15.0264 26.8847 14.9587 26.9214 14.9362C26.9655 14.9136 27.0464 14.9249 27.1639 14.97L27.5165 15.0941C27.6047 15.1242 27.6635 15.1581 27.6929 15.1957C27.7297 15.2332 27.7297 15.3009 27.6929 15.3987ZM45.1085 15.4551C44.9101 16.1395 44.5611 16.7073 44.0615 17.1586C43.5691 17.6023 42.8712 17.8242 41.9674 17.8242C41.2326 17.8242 40.6816 17.6812 40.3142 17.3955C39.9468 17.1022 39.697 16.7186 39.5648 16.2448C39.4325 15.7634 39.3554 15.2408 39.3333 14.6767C39.3113 14.1051 39.2819 13.5373 39.2451 12.9733C39.2157 12.4017 39.1165 11.879 38.9476 11.4052C38.7859 10.9238 38.4957 10.5403 38.0769 10.2545C37.6581 9.96122 37.0445 9.81456 36.2363 9.81456H33.4369C33.1945 9.81456 33.0475 9.85214 32.9961 9.92737C32.952 9.99506 32.9299 10.153 32.9299 10.4012V15.974C32.9299 16.147 32.9593 16.2561 33.0181 16.3012C33.0769 16.3388 33.1945 16.3576 33.3708 16.3576H35.013C35.1673 16.3576 35.2627 16.3839 35.2995 16.4366C35.3362 16.4892 35.3546 16.5982 35.3546 16.7637V17.2714C35.3546 17.4143 35.3289 17.5045 35.2775 17.5421C35.2334 17.5797 35.1378 17.5985 34.9909 17.5985H28.7529C28.6132 17.5985 28.5214 17.576 28.4773 17.5308C28.4333 17.4782 28.4112 17.3805 28.4112 17.2375V16.7524C28.4112 16.5795 28.4369 16.4704 28.4884 16.4253C28.5471 16.3802 28.6537 16.3576 28.808 16.3576H30.3069C30.5346 16.3576 30.6779 16.335 30.7367 16.2899C30.8028 16.2372 30.8359 16.0981 30.8359 15.8725V2.45928C30.8359 2.21865 30.8028 2.06818 30.7367 2.00804C30.6779 1.9479 30.5309 1.91779 30.2959 1.91779H28.808C28.6169 1.91779 28.503 1.88394 28.4663 1.81626C28.4295 1.74857 28.4112 1.6132 28.4112 1.41014V1.06042C28.4112 0.910037 28.4259 0.808507 28.4553 0.755834C28.492 0.703161 28.5802 0.676867 28.7198 0.676867H37.118C38.4479 0.676867 39.517 0.879926 40.3252 1.28605C41.1334 1.69217 41.7176 2.23739 42.0776 2.92181C42.445 3.60622 42.6287 4.36206 42.6287 5.18931C42.6287 6.11436 42.4193 6.91159 42.0005 7.5809C41.5817 8.24276 40.8469 8.73913 39.7962 9.07001C39.5905 9.1377 39.4839 9.20912 39.4766 9.28435C39.4766 9.35959 39.5978 9.46112 39.8403 9.58894C40.384 9.88225 40.7771 10.2508 41.0196 10.6945C41.2693 11.1382 41.431 11.6158 41.5045 12.1272C41.5779 12.6386 41.611 13.1425 41.6037 13.6389C41.6037 14.1352 41.6147 14.5902 41.6368 15.0039C41.6661 15.41 41.758 15.7371 41.9123 15.9853C42.0739 16.2335 42.3568 16.3576 42.7609 16.3576C42.9666 16.3576 43.1724 16.2636 43.3781 16.0756C43.5912 15.8875 43.7785 15.598 43.9402 15.2069C43.9769 15.1167 44.0133 14.962 44.0501 14.9093C44.0942 14.8492 44.1717 14.9212 44.2819 14.9587L44.8329 15.1392C44.9432 15.1768 45.024 15.2145 45.0754 15.2521C45.1268 15.2896 45.1378 15.3573 45.1085 15.4551ZM33.4479 8.46083H37.118C37.6764 8.46083 38.2054 8.34429 38.7051 8.11112C39.2121 7.87048 39.6235 7.50948 39.9395 7.02813C40.2628 6.54677 40.4244 5.93386 40.4244 5.18931C40.4244 4.44476 40.2628 3.83184 39.9395 3.35049C39.6235 2.86167 39.2121 2.50067 38.7051 2.2675C38.2054 2.03433 37.6764 1.91779 37.118 1.91779H33.4479C33.1907 1.91779 33.0402 1.94035 32.9961 1.98548C32.952 2.0306 32.9299 2.1848 32.9299 2.448V7.91934C32.9299 8.15251 32.9556 8.3029 33.0071 8.37058C33.0658 8.43072 33.2128 8.46083 33.4479 8.46083ZM45.442 11.5067C45.442 12.4393 45.5191 13.308 45.6734 14.1127C45.835 14.9174 46.1289 15.5679 46.5551 16.0643C46.9812 16.5607 47.5948 16.8089 48.3957 16.8089C48.9981 16.8089 49.4904 16.6697 49.8725 16.3914C50.2619 16.1057 50.5631 15.7296 50.7763 15.2633C50.9893 14.7971 51.1362 14.2781 51.2171 13.7065C51.3053 13.1275 51.3494 12.5446 51.3494 11.958C51.3494 11.0254 51.2685 10.1567 51.1069 9.35204C50.9526 8.54735 50.6623 7.89678 50.2362 7.40041C49.81 6.90404 49.1965 6.65585 48.3957 6.65585C47.7931 6.65585 47.2972 6.79878 46.9078 7.08454C46.5257 7.36283 46.2281 7.73511 46.0151 8.20137C45.8019 8.66762 45.6514 9.19037 45.5632 9.76944C45.4823 10.341 45.442 10.9201 45.442 11.5067ZM43.1275 11.958C43.1275 10.7546 43.3185 9.67919 43.7006 8.73158C44.09 7.77642 44.6741 7.0244 45.453 6.47536C46.2318 5.91885 47.2127 5.64055 48.3957 5.64055C49.5786 5.64055 50.5595 5.9113 51.3383 6.45279C52.1171 6.98674 52.6976 7.70126 53.0797 8.5962C53.4691 9.48368 53.6638 10.4539 53.6638 11.5067C53.6638 12.7101 53.4691 13.7892 53.0797 14.7444C52.6976 15.692 52.1171 16.4441 51.3383 17.0006C50.5595 17.5497 49.5786 17.8242 48.3957 17.8242C47.2127 17.8242 46.2318 17.5571 45.453 17.0232C44.6741 16.4817 44.09 15.7673 43.7006 14.8798C43.3185 13.9848 43.1275 13.0108 43.1275 11.958ZM57.2128 11.7324C57.2128 12.5897 57.345 13.3944 57.6096 14.1465C57.8741 14.8911 58.2488 15.4965 58.7337 15.9628C59.226 16.4216 59.8064 16.6509 60.4751 16.6509C61.0926 16.6509 61.6323 16.4216 62.0951 15.9628C62.5578 15.4965 62.9184 14.8911 63.1753 14.1465C63.4322 13.3944 63.5611 12.5897 63.5611 11.7324C63.5611 10.875 63.4322 10.074 63.1753 9.32948C62.9184 8.57737 62.5578 7.97201 62.0951 7.51322C61.6323 7.04696 61.0926 6.81379 60.4751 6.81379C59.8064 6.81379 59.226 7.04696 58.7337 7.51322C58.2488 7.97201 57.8741 8.57737 57.6096 9.32948C57.345 10.074 57.2128 10.875 57.2128 11.7324ZM53.4325 1.24092C53.359 1.24092 53.3076 1.22209 53.2782 1.18452C53.2561 1.14694 53.2451 1.09054 53.2451 1.0153V0.169217C53.2451 0.109079 53.2525 0.0676872 53.2672 0.045125C53.2818 0.0150144 53.3149 0 53.3663 0H57.0364C57.0952 0 57.1393 0.0112815 57.1687 0.0338437C57.1981 0.0488575 57.2128 0.0865166 57.2128 0.146655V7.81781C57.2128 7.98329 57.2202 8.08101 57.2348 8.11112C57.2495 8.13368 57.2789 8.09983 57.323 8.00959C57.6903 7.27258 58.1753 6.69725 58.7778 6.28358C59.3803 5.86991 60.0783 5.66312 60.8719 5.66312C61.7466 5.66312 62.5545 5.90375 63.2969 6.38511C64.0384 6.85891 64.634 7.55079 65.0822 8.46083C65.5376 9.36332 65.7653 10.4539 65.7653 11.7324C65.7653 13.0108 65.5376 14.1051 65.0822 15.0152C64.634 15.9252 64.0384 16.6208 63.2969 17.1022C62.5545 17.5835 61.7466 17.8242 60.8719 17.8242C60.1004 17.8242 59.417 17.6324 58.8219 17.2488C58.2341 16.8577 57.7565 16.3088 57.3891 15.6018C57.3156 15.4664 57.2679 15.4137 57.2458 15.4438C57.2238 15.4664 57.2128 15.6131 57.2128 15.8838V17.1924C57.2128 17.3052 57.1944 17.403 57.1577 17.4857C57.1283 17.561 57.0548 17.5985 56.9372 17.5985H53.4545C53.3663 17.5985 53.3076 17.591 53.2782 17.576C53.2561 17.5534 53.2451 17.497 53.2451 17.4067V16.5381C53.2451 16.4629 53.2598 16.414 53.2892 16.3914C53.3259 16.3689 53.381 16.3576 53.4545 16.3576H55.0416C55.1224 16.3576 55.1738 16.3463 55.1959 16.3238C55.2179 16.2937 55.2289 16.2372 55.2289 16.1545V1.46654C55.2289 1.31616 55.1702 1.24092 55.0526 1.24092H53.4325ZM68.7986 11.5067C68.7986 12.4393 68.8764 13.308 69.0304 14.1127C69.1916 14.9174 69.4858 15.5679 69.9121 16.0643C70.3383 16.5607 70.9518 16.8089 71.7525 16.8089C72.3554 16.8089 72.8473 16.6697 73.2298 16.3914C73.6188 16.1057 73.9203 15.7296 74.1334 15.2633C74.3465 14.7971 74.4932 14.2781 74.5742 13.7065C74.6626 13.1275 74.7063 12.5446 74.7063 11.958C74.7063 11.0254 74.6253 10.1567 74.464 9.35204C74.3092 8.54735 74.0191 7.89678 73.5929 7.40041C73.1674 6.90404 72.5531 6.65585 71.7525 6.65585C71.1503 6.65585 70.6544 6.79878 70.2646 7.08454C69.8829 7.36283 69.5855 7.73511 69.3724 8.20137C69.1592 8.66762 69.0085 9.19037 68.9202 9.76944C68.8391 10.341 68.7986 10.9201 68.7986 11.5067ZM66.4841 11.958C66.4841 10.7546 66.6754 9.67919 67.0579 8.73158C67.4469 7.77642 68.0312 7.0244 68.8099 6.47536C69.5887 5.91885 70.5693 5.64055 71.7525 5.64055C72.9356 5.64055 73.9162 5.9113 74.695 6.45279C75.4738 6.98674 76.0548 7.70126 76.4365 8.5962C76.8263 9.48368 77.0208 10.4539 77.0208 11.5067C77.0208 12.7101 76.8263 13.7892 76.4365 14.7444C76.0548 15.692 75.4738 16.4441 74.695 17.0006C73.9162 17.5497 72.9356 17.8242 71.7525 17.8242C70.5693 17.8242 69.5887 17.5571 68.8099 17.0232C68.0312 16.4817 67.4469 15.7673 67.0579 14.8798C66.6754 13.9848 66.4841 13.0108 66.4841 11.958ZM84.1838 15.3987C84.0372 15.85 83.824 16.2636 83.5453 16.6396C83.273 17.0156 82.9277 17.3165 82.5088 17.5421C82.0971 17.7602 81.6052 17.8693 81.0322 17.8693C80.2389 17.8693 79.6692 17.6549 79.3239 17.2262C78.9787 16.7976 78.8061 16.2749 78.8061 15.6582V7.49066C78.8061 7.35528 78.7802 7.25748 78.7283 7.19735C78.6772 7.13721 78.5857 7.1071 78.4528 7.1071H77.1416C76.9876 7.1071 76.8847 7.08827 76.8328 7.05069C76.7818 7.01312 76.7558 6.91905 76.7558 6.76866V6.15948C76.7558 6.01656 76.7745 5.93386 76.8109 5.9113C76.8547 5.88119 76.9471 5.86618 77.0865 5.86618C77.4836 5.86618 77.8069 5.83988 78.0565 5.78721C78.3061 5.73454 78.5119 5.61799 78.6732 5.43749C78.8353 5.257 78.9787 4.97497 79.1035 4.59141C79.2283 4.20785 79.3645 3.68892 79.5111 3.03462C79.5403 2.90679 79.5735 2.82028 79.61 2.77515C79.6473 2.73003 79.7462 2.70747 79.9082 2.70747H80.5031C80.6943 2.70747 80.7899 2.81654 80.7899 3.03462V5.51646C80.7899 5.6744 80.8264 5.77219 80.9001 5.80977C80.9731 5.84735 81.0801 5.86618 81.2194 5.86618H83.666C83.8135 5.86618 83.9083 5.88874 83.9529 5.93386C84.0039 5.97899 84.0299 6.08052 84.0299 6.23845V6.82507C84.0299 6.96044 84.0007 7.04314 83.9415 7.07325C83.8905 7.09582 83.7981 7.1071 83.666 7.1071H81.2413C81.0873 7.1071 80.9731 7.12593 80.9001 7.1635C80.8264 7.20108 80.7899 7.30642 80.7899 7.47937V15.1844C80.7899 15.6356 80.8775 15.9628 81.0541 16.1658C81.2308 16.3689 81.4658 16.4704 81.7592 16.4704C82.0752 16.4704 82.358 16.3576 82.6084 16.132C82.8653 15.8988 83.089 15.5679 83.2803 15.1392C83.3321 15.0264 83.3759 14.9587 83.4124 14.9362C83.4569 14.9136 83.538 14.9249 83.6555 14.97L84.008 15.0941C84.0963 15.1242 84.1547 15.1581 84.1838 15.1957C84.2211 15.2332 84.2211 15.3009 84.1838 15.3987Z" fill="#5D4BFF"/>
</svg>
