<svg width="15" height="19" viewBox="0 0 15 19" fill="none" xmlns="http://www.w3.org/2000/svg">
<path d="M9.16659 1.05798V4.5001C9.16659 4.96681 9.16659 5.20017 9.25741 5.37843C9.33731 5.53523 9.46479 5.66271 9.62159 5.74261C9.79985 5.83343 10.0332 5.83343 10.4999 5.83343H13.942M9.16659 13.3334H4.16659M10.8333 10H4.16659M14.1666 7.49023V13.5C14.1666 14.9002 14.1666 15.6002 13.8941 16.135C13.6544 16.6054 13.272 16.9879 12.8016 17.2276C12.2668 17.5 11.5667 17.5 10.1666 17.5H4.83325C3.43312 17.5 2.73306 17.5 2.19828 17.2276C1.72787 16.9879 1.34542 16.6054 1.10574 16.135C0.833252 15.6002 0.833252 14.9002 0.833252 13.5V4.83337C0.833252 3.43324 0.833252 2.73318 1.10574 2.1984C1.34542 1.72799 1.72787 1.34554 2.19828 1.10586C2.73306 0.833374 3.43312 0.833374 4.83325 0.833374H7.50973C8.12121 0.833374 8.42695 0.833374 8.71466 0.902449C8.96975 0.963691 9.21362 1.0647 9.4373 1.20177C9.68959 1.35638 9.90578 1.57257 10.3382 2.00495L12.995 4.6618C13.4274 5.09418 13.6436 5.31037 13.7982 5.56266C13.9353 5.78634 14.0363 6.0302 14.0975 6.28529C14.1666 6.57301 14.1666 6.87875 14.1666 7.49023Z" stroke="#7A7A7A" stroke-width="1.66667" stroke-linecap="round" stroke-linejoin="round"/>
</svg>
