<svg width="19" height="19" viewBox="0 0 19 19" fill="none" xmlns="http://www.w3.org/2000/svg">
<path d="M6.74159 6.66668C6.93751 6.10973 7.32421 5.6401 7.83321 5.34095C8.34222 5.04181 8.94066 4.93246 9.52257 5.03227C10.1045 5.13208 10.6323 5.43461 11.0125 5.88628C11.3927 6.33795 11.6008 6.90961 11.5999 7.50001C11.5999 9.16668 9.09992 10 9.09992 10M9.16659 13.3333H9.17492M17.4999 9.16668C17.4999 13.769 13.769 17.5 9.16659 17.5C4.56421 17.5 0.833252 13.769 0.833252 9.16668C0.833252 4.5643 4.56421 0.833344 9.16659 0.833344C13.769 0.833344 17.4999 4.5643 17.4999 9.16668Z" stroke="#5D4BFF" stroke-width="1.66667" stroke-linecap="round" stroke-linejoin="round"/>
</svg>
