<svg width="24" height="24" viewBox="0 0 24 24" fill="none" xmlns="http://www.w3.org/2000/svg">
<g clip-path="url(#clip0_1_247)">
<path d="M8.59742 6.33676C8.59742 5.89686 8.93769 5.55847 9.38002 5.55847H14.62C15.0624 5.55847 15.4026 5.89686 15.4026 6.33676V8.23174C15.4026 8.67164 15.7429 9.01003 16.1852 9.01003H18.0226C18.4649 9.01003 18.8052 9.34842 18.8052 9.78832V11.6833C18.8052 12.1232 18.4649 12.4616 18.0226 12.4616H16.1852C15.7429 12.4616 15.4026 12.1232 15.4026 11.6833V9.78832C15.4026 9.34842 15.0624 9.01003 14.62 9.01003H9.38002C8.93769 9.01003 8.59742 9.34842 8.59742 9.78832L8.59742 14.2117C8.59742 14.6516 8.93768 14.99 9.38002 14.99L12.3346 14.99C14.029 14.99 15.4026 16.3636 15.4026 18.0581C15.4026 18.2699 15.2309 18.4416 15.0191 18.4416L9.38002 18.4416C8.93768 18.4416 8.59742 18.1032 8.59742 17.6633V15.7683C8.59742 15.3284 8.25716 14.99 7.81482 14.99H5.97742C5.53508 14.99 5.19482 14.6516 5.19482 14.2117V9.78832C5.19482 9.34842 5.53508 9.01003 5.97742 9.01003H7.81482C8.25716 9.01003 8.59742 8.67164 8.59742 8.23174V6.33676Z" fill="#ECB900"/>
<path d="M19.6367 0.779297C19.6367 1.20969 19.9856 1.55859 20.416 1.55859H21.0391C21.7564 1.55859 22.3379 2.1401 22.3379 2.85742V3.3252C22.3379 3.78417 22.71 4.15625 23.1689 4.15625C23.6279 4.15625 24 4.52833 24 4.9873V19.0127C24 19.4717 23.6279 19.8438 23.1689 19.8438C22.71 19.8438 22.3379 20.2158 22.3379 20.6748V21.1426C22.3379 21.8599 21.7564 22.4414 21.0391 22.4414H20.416C19.9856 22.4414 19.6367 22.7903 19.6367 23.2207C19.6367 23.6511 19.2878 24 18.8574 24H5.14258C4.71218 24 4.36328 23.6511 4.36328 23.2207C4.36328 22.7903 4.01438 22.4414 3.58398 22.4414H2.96094C2.24361 22.4414 1.66211 21.8599 1.66211 21.1426V20.6748C1.66211 20.2158 1.29003 19.8438 0.831055 19.8438C0.372076 19.8438 0 19.4717 0 19.0127V4.9873C0 4.52833 0.372076 4.15625 0.831055 4.15625C1.29003 4.15625 1.66211 3.78417 1.66211 3.3252V2.85742C1.66211 2.1401 2.24361 1.55859 2.96094 1.55859H3.58398C4.01438 1.55859 4.36328 1.20969 4.36328 0.779297C4.36328 0.348903 4.71218 0 5.14258 0H18.8574C19.2878 0 19.6367 0.348903 19.6367 0.779297ZM6.85645 2.07812C5.93849 2.07812 5.19434 2.82228 5.19434 3.74023V3.84424C5.19434 4.70476 4.49675 5.40234 3.63623 5.40234C2.77571 5.40234 2.07812 6.09993 2.07812 6.96045V17.0396C2.07812 17.9001 2.77571 18.5977 3.63623 18.5977C4.49675 18.5977 5.19434 19.2952 5.19434 20.1558V20.2598C5.19434 21.1777 5.93849 21.9219 6.85645 21.9219H17.1436C18.0615 21.9219 18.8057 21.1777 18.8057 20.2598V20.1558C18.8057 19.2952 19.5033 18.5977 20.3638 18.5977C21.2243 18.5977 21.9219 17.9001 21.9219 17.0396V6.96045C21.9219 6.09993 21.2243 5.40234 20.3638 5.40234C19.5033 5.40234 18.8057 4.70476 18.8057 3.84424V3.74023C18.8057 2.82228 18.0615 2.07812 17.1436 2.07812H6.85645Z" fill="#ECB900"/>
</g>
<defs>
<clipPath id="clip0_1_247">
<rect width="24" height="24" fill="white"/>
</clipPath>
</defs>
</svg>
