<svg width="16" height="17" viewBox="0 0 16 17" fill="none" xmlns="http://www.w3.org/2000/svg">
<path d="M7.79765 10.8333C5.15591 10.8333 2.80664 12.1089 1.31097 14.0883C0.989066 14.5143 0.828112 14.7273 0.833377 15.0152C0.837445 15.2376 0.977113 15.5182 1.15212 15.6556C1.37864 15.8333 1.69254 15.8333 2.32034 15.8333H13.275C13.9028 15.8333 14.2167 15.8333 14.4432 15.6556C14.6182 15.5182 14.7578 15.2376 14.7619 15.0152C14.7672 14.7273 14.6062 14.5143 14.2843 14.0883C12.7886 12.1089 10.4394 10.8333 7.79765 10.8333Z" stroke="#7A7A7A" stroke-width="1.66667" stroke-linecap="round" stroke-linejoin="round"/>
<path d="M7.79765 8.33333C9.86871 8.33333 11.5476 6.6544 11.5476 4.58333C11.5476 2.51226 9.86871 0.833328 7.79765 0.833328C5.72658 0.833328 4.04765 2.51226 4.04765 4.58333C4.04765 6.6544 5.72658 8.33333 7.79765 8.33333Z" stroke="#7A7A7A" stroke-width="1.66667" stroke-linecap="round" stroke-linejoin="round"/>
</svg>
