<svg width="17" height="19" viewBox="0 0 17 19" fill="none" xmlns="http://www.w3.org/2000/svg">
<path d="M11.802 6.66668V4.16668C11.802 2.32573 10.3096 0.833344 8.46865 0.833344C6.6277 0.833344 5.13532 2.32573 5.13532 4.16668V6.66668M1.46199 7.79331L0.961987 13.1266C0.819823 14.6431 0.748741 15.4013 1.00036 15.9869C1.2214 16.5014 1.60875 16.9267 2.10033 17.1948C2.65992 17.5 3.42146 17.5 4.94452 17.5H11.9928C13.5158 17.5 14.2774 17.5 14.837 17.1948C15.3286 16.9267 15.7159 16.5014 15.9369 15.9869C16.1886 15.4013 16.1175 14.6431 15.9753 13.1266L15.4753 7.79331C15.3553 6.5128 15.2952 5.87254 15.0073 5.38848C14.7536 4.96216 14.3789 4.62094 13.9308 4.40821C13.422 4.16668 12.7789 4.16668 11.4928 4.16668L5.44452 4.16668C4.15839 4.16668 3.51533 4.16668 3.0065 4.40821C2.55837 4.62093 2.18366 4.96216 1.93003 5.38848C1.64206 5.87254 1.58204 6.5128 1.46199 7.79331Z" stroke="#7A7A7A" stroke-width="1.66667" stroke-linecap="round" stroke-linejoin="round"/>
</svg>
